<svg width="12" height="10" viewBox="0 0 12 10" fill="none" xmlns="http://www.w3.org/2000/svg">
<path d="M11.8299 5.41497C12.0567 5.18579 12.0567 4.81421 11.8299 4.58503L7.95845 0.671886C7.7317 0.442705 7.36408 0.442705 7.13734 0.671886C6.9106 0.901067 6.9106 1.27264 7.13734 1.50182L10.0177 4.41313L0.580609 4.41313C0.259948 4.41313 1.40166e-08 4.67587 0 4.99998C-1.40166e-08 5.32409 0.259948 5.58684 0.580609 5.58684L10.0177 5.58684L7.13734 8.49818C6.9106 8.72736 6.9106 9.09893 7.13734 9.32811C7.36408 9.55729 7.7317 9.55729 7.95845 9.32811L11.8299 5.41497Z" fill="#F2B645"/>
</svg>
