<svg width="28" height="28" viewBox="0 0 28 28" fill="none" xmlns="http://www.w3.org/2000/svg">
<path d="M9.33337 9.33337L9.33337 8.16671C9.33337 5.58938 11.4227 3.50004 14 3.50004V3.50004C16.5774 3.50004 18.6667 5.58938 18.6667 8.16671L18.6667 9.33337" stroke="#2F80ED" stroke-width="2" stroke-linecap="round"/>
<path d="M17.5 16.3333V14" stroke="#2F80ED" stroke-width="2" stroke-linecap="round"/>
<path d="M10.5 16.3333V14" stroke="#2F80ED" stroke-width="2" stroke-linecap="round"/>
<path d="M4.66663 13.3334C4.66663 11.4478 4.66663 10.5049 5.25241 9.91916C5.8382 9.33337 6.78101 9.33337 8.66663 9.33337H19.3333C21.2189 9.33337 22.1617 9.33337 22.7475 9.91916C23.3333 10.5049 23.3333 11.4478 23.3333 13.3334V16.5C23.3333 20.2713 23.3333 22.1569 22.1617 23.3285C20.9901 24.5 19.1045 24.5 15.3333 24.5H12.6666C8.89539 24.5 7.00977 24.5 5.8382 23.3285C4.66663 22.1569 4.66663 20.2713 4.66663 16.5V13.3334Z" stroke="#2F80ED" stroke-width="2"/>
</svg>
