<svg width="28" height="28" viewBox="0 0 28 28" fill="none" xmlns="http://www.w3.org/2000/svg">
<path d="M9.33325 9.33331L9.33325 8.16665C9.33325 5.58932 11.4226 3.49998 13.9999 3.49998V3.49998C16.5772 3.49998 18.6666 5.58932 18.6666 8.16665L18.6666 9.33331" stroke="#0E0E2C" stroke-width="2" stroke-linecap="round"/>
<path d="M17.5 16.3333V14" stroke="#0E0E2C" stroke-width="2" stroke-linecap="round"/>
<path d="M10.5 16.3333V14" stroke="#0E0E2C" stroke-width="2" stroke-linecap="round"/>
<path d="M4.66675 13.3333C4.66675 11.4477 4.66675 10.5049 5.25253 9.9191C5.83832 9.33331 6.78113 9.33331 8.66675 9.33331H19.3334C21.219 9.33331 22.1618 9.33331 22.7476 9.9191C23.3334 10.5049 23.3334 11.4477 23.3334 13.3333V16.5C23.3334 20.2712 23.3334 22.1568 22.1618 23.3284C20.9903 24.5 19.1046 24.5 15.3334 24.5H12.6667C8.89551 24.5 7.00989 24.5 5.83832 23.3284C4.66675 22.1568 4.66675 20.2712 4.66675 16.5V13.3333Z" stroke="#0E0E2C" stroke-width="2"/>
</svg>
