<svg width="13" height="10" viewBox="0 0 13 10" fill="none" xmlns="http://www.w3.org/2000/svg">
<path d="M11.952 0.756664C11.8324 0.658275 11.6756 0.607837 11.5158 0.616419C11.3561 0.625 11.2066 0.691901 11.1001 0.802438L4.48348 7.68714L1.43201 5.21533C1.33941 5.14062 1.22003 5.10061 1.09724 5.10314C0.974448 5.10566 0.857098 5.15053 0.76817 5.22897C0.679242 5.30741 0.625143 5.41376 0.616467 5.5272C0.60779 5.64063 0.645163 5.75298 0.721264 5.84224L3.8802 9.53602C3.96349 9.6331 4.06944 9.71145 4.19011 9.76518C4.31079 9.81891 4.44304 9.84663 4.57694 9.84624C4.71084 9.84586 4.84291 9.81739 4.96322 9.76297C5.08354 9.70855 5.18897 9.6296 5.2716 9.53204L5.30456 9.4929L12.0265 1.51758C12.1205 1.40559 12.1651 1.26476 12.1512 1.12352C12.1374 0.982291 12.0662 0.851179 11.952 0.756664Z" fill="white"/>
</svg>
