<svg width="10" height="9" viewBox="0 0 10 9" fill="none" xmlns="http://www.w3.org/2000/svg">
<path d="M9.76181 0.805331C9.66613 0.72662 9.54064 0.68627 9.41287 0.693135C9.2851 0.7 9.16549 0.753521 9.0803 0.84195L3.78698 6.34971L1.3458 4.37227C1.27172 4.3125 1.17622 4.28049 1.07799 4.28251C0.979753 4.28453 0.885874 4.32043 0.814731 4.38318C0.743589 4.44593 0.700309 4.53101 0.693369 4.62176C0.686428 4.71251 0.716325 4.80239 0.777207 4.87379L3.30436 7.82882C3.37098 7.90648 3.45575 7.96916 3.55229 8.01215C3.64883 8.05513 3.75463 8.0773 3.86175 8.07699C3.96887 8.07669 4.07452 8.05391 4.17077 8.01038C4.26702 7.96684 4.35137 7.90368 4.41747 7.82563L4.44384 7.79432L9.82142 1.41406C9.89659 1.32447 9.93224 1.2118 9.92117 1.09882C9.91011 0.985833 9.85315 0.880943 9.76181 0.805331Z" fill="white"/>
</svg>
