<svg width="14" height="25" viewBox="0 0 14 25" fill="none" xmlns="http://www.w3.org/2000/svg">
<path d="M9.93329 0.00488281C8.29783 0.00488281 6.72929 0.654589 5.57276 1.81106C4.41636 2.96754 3.76663 4.53604 3.76663 6.17155V9.60488H0.466626C0.300946 9.60488 0.166626 9.73915 0.166626 9.90488V14.4382C0.166626 14.6039 0.300946 14.7382 0.466626 14.7382H3.76663V24.0382C3.76663 24.2039 3.90095 24.3382 4.06663 24.3382H8.59996C8.76569 24.3382 8.89996 24.2039 8.89996 24.0382V14.7382H12.2292C12.3669 14.7382 12.4869 14.6445 12.5202 14.511L13.6536 9.97768C13.7009 9.78835 13.5577 9.60488 13.3625 9.60488H8.89996V6.17155C8.89996 5.8975 9.00889 5.63466 9.20263 5.44087C9.39636 5.24708 9.65929 5.13822 9.93329 5.13822H13.4C13.5657 5.13822 13.7 5.0039 13.7 4.83822V0.304883C13.7 0.139203 13.5657 0.00488281 13.4 0.00488281H9.93329Z" fill="#F2B645"/>
</svg>
