<svg width="22" height="20" viewBox="0 0 22 20" fill="none" xmlns="http://www.w3.org/2000/svg">
<path fill-rule="evenodd" clip-rule="evenodd" d="M8.07918 17.3857L2.01285 11.5994C-0.270865 9.42105 -0.549151 5.87303 1.36702 3.3653L1.78109 2.82341C4.06558 -0.16635 8.67417 0.282411 10.3566 3.60824L5.64669 8.31819L5.24403 8.72086L5.69539 9.06806L11.744 13.7209L8.07918 17.3857ZM8.80299 18.0761L10.3098 19.5134C10.6365 19.825 10.7998 19.9808 11 19.9808C11.2002 19.9808 11.3636 19.825 11.6902 19.5134L11.6902 19.5134L19.9872 11.5994C22.2709 9.42105 22.5492 5.87303 20.633 3.3653L20.219 2.8234C17.9029 -0.20767 13.1981 0.29547 11.5754 3.74776C11.5204 3.86476 11.4386 3.95365 11.3429 4.01444L11.3538 4.0253L6.75646 8.62263L12.8051 13.2754L13.2565 13.6226L12.8538 14.0253L8.80299 18.0761Z" fill="#459FF2"/>
</svg>
