<svg width="20" height="20" viewBox="0 0 20 20" fill="none" xmlns="http://www.w3.org/2000/svg">
<path d="M11.7224 17.8785C12.7571 17.696 13.7456 17.3116 14.6316 16.7471C15.5177 16.1827 16.2839 15.4492 16.8865 14.5886C17.4891 13.728 17.9162 12.7572 18.1436 11.7315C18.371 10.7058 18.3941 9.64543 18.2117 8.61081C18.0293 7.5762 17.6449 6.58765 17.0804 5.7016C16.5159 4.81556 15.7824 4.04937 14.9219 3.44678C14.0613 2.8442 13.0904 2.41702 12.0648 2.18963C11.0391 1.96225 9.97868 1.93911 8.94407 2.12154C7.90945 2.30397 6.9209 2.6884 6.03486 3.25287C5.14881 3.81734 4.38262 4.55081 3.78004 5.41139C3.17745 6.27197 2.75027 7.24281 2.52289 8.26848C2.2955 9.29416 2.27236 10.3546 2.45479 11.3892C2.63722 12.4238 3.02165 13.4124 3.58612 14.2984C4.1506 15.1844 4.88406 15.9506 5.74464 16.5532C6.60522 17.1558 7.57607 17.583 8.60174 17.8104C9.62741 18.0378 10.6878 18.0609 11.7224 17.8785L11.7224 17.8785Z" stroke="#0E0E2C" stroke-width="2"/>
<path d="M10.3333 10L10.3333 14.8" stroke="#0E0E2C" stroke-width="2" stroke-linecap="square"/>
<path d="M10.3333 6L10.3333 5.2" stroke="#0E0E2C" stroke-width="2" stroke-linecap="square"/>
</svg>
