<svg width="26" height="26" viewBox="0 0 26 26" fill="none" xmlns="http://www.w3.org/2000/svg">
<path d="M13.0001 8.83838C10.6069 8.83838 8.66675 10.7784 8.66675 13.1716C8.66675 15.565 10.6069 17.505 13.0001 17.505C15.3933 17.505 17.3334 15.565 17.3334 13.1716C17.3334 10.7784 15.3933 8.83838 13.0001 8.83838Z" fill="#F2B645"/>
<path fill-rule="evenodd" clip-rule="evenodd" d="M6.02606 1.28039C10.6236 0.766563 15.3765 0.766563 19.974 1.28039C22.5052 1.5633 24.5468 3.55767 24.8439 6.09774C25.3936 10.7977 25.3936 15.5458 24.8439 20.2458C24.5468 22.7858 22.5052 24.7802 19.974 25.0632C15.3765 25.577 10.6236 25.577 6.02606 25.0632C3.49486 24.7802 1.45327 22.7858 1.15618 20.2458C0.60647 15.5458 0.60647 10.7977 1.15618 6.09774C1.45327 3.55767 3.49486 1.5633 6.02606 1.28039ZM19.6667 5.17176C18.9303 5.17176 18.3334 5.76871 18.3334 6.50509C18.3334 7.24147 18.9303 7.83843 19.6667 7.83843C20.4031 7.83843 21 7.24147 21 6.50509C21 5.76871 20.4031 5.17176 19.6667 5.17176ZM6.66669 13.1717C6.66669 9.67395 9.50222 6.83843 13 6.83843C16.4979 6.83843 19.3334 9.67395 19.3334 13.1717C19.3334 16.6696 16.4979 19.505 13 19.505C9.50222 19.505 6.66669 16.6696 6.66669 13.1717Z" fill="#F2B645"/>
</svg>
