<svg width="16" height="16" viewBox="0 0 16 16" fill="none" xmlns="http://www.w3.org/2000/svg">
<path fill-rule="evenodd" clip-rule="evenodd" d="M9.97209 11.0647C8.92534 11.8784 7.61003 12.363 6.18155 12.363C2.76764 12.363 0.00012207 9.59543 0.00012207 6.18148C0.00012207 2.76754 2.76764 0 6.18155 0C9.59546 0 12.363 2.76754 12.363 6.18148C12.363 7.60993 11.8785 8.92521 11.0648 9.97195L16.0001 14.9073L14.9074 16L9.97209 11.0647ZM10.8176 6.18148C10.8176 8.74193 8.74197 10.8176 6.18155 10.8176C3.62112 10.8176 1.54548 8.74193 1.54548 6.18148C1.54548 3.62104 3.62112 1.54537 6.18155 1.54537C8.74197 1.54537 10.8176 3.62104 10.8176 6.18148Z" fill="#868695"/>
</svg>
