<svg width="27" height="25" viewBox="0 0 27 25" fill="none" xmlns="http://www.w3.org/2000/svg">
<path fill-rule="evenodd" clip-rule="evenodd" d="M22.6441 22.5584L22.645 22.5562L22.6682 22.4982L26.6666 2.33936V2.27388C26.6666 1.77161 26.481 1.33313 26.0772 1.07012C25.7237 0.839907 25.3174 0.82352 25.0325 0.845146C24.731 0.868013 24.4469 0.94324 24.2502 1.00585C24.149 1.03807 24.0644 1.06911 24.0037 1.09257C23.9733 1.10436 23.9486 1.11436 23.9308 1.1218L23.9132 1.12921L1.62007 9.87443L1.61394 9.87669C1.6019 9.88109 1.58598 9.88696 1.56674 9.89443C1.5284 9.90936 1.47622 9.93069 1.41491 9.95856C1.29454 10.0131 1.12822 10.0972 0.95955 10.2128C0.673083 10.409 0.12759 10.8734 0.219696 11.6096C0.29599 12.2196 0.716403 12.607 0.99983 12.8075C1.15175 12.915 1.29711 12.9924 1.40355 13.0431C1.45747 13.0688 1.50328 13.0884 1.5374 13.1024C1.55451 13.1094 1.5688 13.115 1.57987 13.1191L1.59404 13.1244L1.6031 13.1278L5.50342 14.4408C5.49026 14.6855 5.51452 14.9351 5.57942 15.1812L7.53314 22.5924C7.76478 23.4712 8.55975 24.0832 9.46851 24.0827C10.2831 24.082 11.0055 23.5892 11.3124 22.854L14.3626 19.5926L19.6013 23.609L19.6758 23.6414C20.1517 23.8491 20.5965 23.915 21.003 23.8594C21.409 23.8039 21.7316 23.6336 21.974 23.4398C22.2125 23.249 22.3758 23.0336 22.4786 22.8715C22.5309 22.7891 22.5698 22.7167 22.5968 22.6623C22.6104 22.635 22.621 22.6118 22.629 22.5938L22.6392 22.5704L22.6428 22.5619L22.6441 22.5584ZM7.51328 14.6714C7.46888 14.503 7.53859 14.3251 7.68564 14.2318L20.915 5.83058C20.915 5.83058 21.6932 5.35818 21.6653 5.83058C21.6653 5.83058 21.8042 5.91399 21.3872 6.30297C20.9917 6.67241 11.9584 15.3938 11.0443 16.2763C10.9915 16.3272 10.96 16.3856 10.9414 16.4566L9.467 22.0826L7.51328 14.6714Z" fill="#459FF2"/>
</svg>
