<svg width="32" height="33" viewBox="0 0 32 33" fill="none" xmlns="http://www.w3.org/2000/svg">
<path fill-rule="evenodd" clip-rule="evenodd" d="M24.6441 26.5584L24.645 26.5562L24.6682 26.4982L28.6666 6.33936V6.27388C28.6666 5.77161 28.481 5.33313 28.0772 5.07012C27.7237 4.83991 27.3174 4.82352 27.0325 4.84515C26.731 4.86801 26.4469 4.94324 26.2502 5.00585C26.149 5.03807 26.0644 5.06911 26.0037 5.09257C25.9733 5.10436 25.9486 5.11436 25.9308 5.1218L25.9132 5.12921L3.62007 13.8744L3.61394 13.8767C3.6019 13.8811 3.58598 13.887 3.56674 13.8944C3.5284 13.9094 3.47622 13.9307 3.41491 13.9586C3.29454 14.0131 3.12822 14.0972 2.95955 14.2128C2.67308 14.409 2.12759 14.8734 2.2197 15.6096C2.29599 16.2196 2.7164 16.607 2.99983 16.8075C3.15175 16.915 3.29711 16.9924 3.40355 17.0431C3.45747 17.0688 3.50328 17.0884 3.5374 17.1024C3.55451 17.1094 3.5688 17.115 3.57987 17.1191L3.59404 17.1244L3.6031 17.1278L7.50342 18.4408C7.49026 18.6855 7.51452 18.9351 7.57942 19.1812L9.53314 26.5924C9.76478 27.4712 10.5597 28.0832 11.4685 28.0827C12.2831 28.082 13.0055 27.5892 13.3124 26.854L16.3626 23.5926L21.6013 27.609L21.6758 27.6414C22.1517 27.8491 22.5965 27.915 23.003 27.8594C23.409 27.8039 23.7316 27.6336 23.974 27.4398C24.2125 27.249 24.3758 27.0336 24.4786 26.8715C24.5309 26.7891 24.5698 26.7167 24.5968 26.6623C24.6104 26.635 24.621 26.6118 24.629 26.5938L24.6392 26.5704L24.6428 26.5619L24.6441 26.5584ZM9.51328 18.6714C9.46888 18.503 9.53859 18.3251 9.68564 18.2318L22.915 9.83058C22.915 9.83058 23.6932 9.35818 23.6653 9.83058C23.6653 9.83058 23.8042 9.91399 23.3872 10.303C22.9917 10.6724 13.9584 19.3938 13.0443 20.2763C12.9915 20.3272 12.96 20.3856 12.9414 20.4566L11.467 26.0826L9.51328 18.6714Z" fill="#F2B645"/>
</svg>
