<svg width="212" height="28" viewBox="0 0 212 28" fill="none" xmlns="http://www.w3.org/2000/svg">
<path d="M16.7952 11.0797C16.7952 11.0797 18.8578 8.55154 15.4428 6.72764C12.3018 5.03927 7.89082 5.10115 5.03563 6.3328C2.18043 7.56445 2.00954 9.95998 2.00954 10.729C2.02376 11.4374 2.20165 12.1329 2.5293 12.7611C2.85696 13.3893 3.32549 13.9333 3.89826 14.3503C5.51591 15.5731 8.04109 15.6468 10.0182 15.6468C12.2134 15.6468 15.5724 15.5289 15.5724 17.7978C15.5724 19.878 11.8274 20.2139 10.5633 20.2139C9.06883 20.222 7.59092 19.9006 6.23473 19.2727C4.87853 18.6448 3.67738 17.7257 2.7167 16.5808C1.62099 16.866 0.659772 17.5259 0 18.446C0 18.446 4.20176 23.4934 9.97107 23.4934C15.7404 23.4934 18.8578 21.6253 18.8578 17.3852C18.8578 14.8306 16.4564 12.9949 14.0785 12.9242C10.5014 12.8152 5.30376 13.4664 5.30376 10.729C5.30376 7.9917 13.2034 7.88268 16.7952 11.0797Z" fill="#0E0E2C"/>
<path d="M27.138 6.04089H22.6475V3.41553H19.253V6.06741C18.7912 6.13741 18.3689 6.36821 18.0605 6.71913C17.7522 7.07006 17.5776 7.51857 17.5676 7.9856V9.39404H19.253V14.8687C19.2771 16.4406 19.6829 17.983 20.4354 19.3632C21.1878 20.7435 22.2645 21.9201 23.5727 22.7919C23.8753 23.0243 24.246 23.1506 24.6275 23.1514C25.0709 23.1609 25.5 22.994 25.8204 22.6874C26.1408 22.3807 26.3265 21.9595 26.3365 21.5161C26.3337 21.2572 26.2685 21.0029 26.1464 20.7746C26.0244 20.5463 25.849 20.3509 25.6352 20.2049C24.7252 19.6492 23.9721 18.8704 23.4471 17.9423C22.9222 17.0141 22.6429 15.9674 22.6357 14.9011V9.40583H27.138C27.3566 9.41052 27.574 9.37209 27.7778 9.29274C27.9816 9.21338 28.1677 9.09465 28.3256 8.94334C28.4835 8.79202 28.61 8.61108 28.698 8.41085C28.7859 8.21063 28.8335 7.99504 28.8381 7.7764V7.66738C28.8281 7.22633 28.6434 6.8073 28.3246 6.50234C28.0058 6.19737 27.579 6.0314 27.138 6.04089Z" fill="#0E0E2C"/>
<path d="M64.2968 13.9853C64.2968 9.32097 60.3513 5.53762 55.4807 5.53762C53.6218 5.53328 51.8072 6.10454 50.286 7.17295C49.9389 7.38232 49.6062 7.61463 49.2901 7.86833C49.2847 7.61641 49.2298 7.36802 49.1284 7.13734C49.027 6.90666 48.8812 6.69821 48.6992 6.52391C48.5172 6.34961 48.3027 6.21287 48.0679 6.1215C47.8331 6.03012 47.5825 5.98591 47.3306 5.99139H46.5056C46.2537 5.98591 46.0031 6.03012 45.7683 6.1215C45.5335 6.21287 45.319 6.34961 45.137 6.52391C44.9551 6.69821 44.8092 6.90666 44.7078 7.13734C44.6064 7.36802 44.5515 7.61641 44.5461 7.86833V9.24436H45.8957V25.7862C45.8979 25.9564 45.9572 26.1209 46.064 26.2534C46.1709 26.3859 46.3191 26.4787 46.485 26.5169L48.8157 27.0738C48.8705 27.088 48.9278 27.0897 48.9833 27.0787C49.0388 27.0677 49.0912 27.0444 49.1364 27.0104C49.1817 26.9765 49.2188 26.9327 49.2449 26.8825C49.2709 26.8323 49.2854 26.7768 49.2871 26.7202V21.2191C50.9553 22.5648 53.0369 23.2933 55.1802 23.2816C60.2188 23.2816 64.3144 19.3686 64.3144 14.5393V13.9794L64.2968 13.9853ZM54.806 20.1406C51.4941 20.1406 48.8098 17.5654 48.8098 14.392C48.8098 11.2185 51.5059 8.64032 54.806 8.64032C58.1061 8.64032 60.8169 11.2274 60.8169 14.392C60.8169 17.5565 58.1326 20.1406 54.806 20.1406Z" fill="#0E0E2C"/>
<path d="M83.0922 13.9853C83.0922 9.32097 79.1468 5.53762 74.2761 5.53762C72.4163 5.53325 70.6007 6.10449 69.0785 7.17295C68.7252 7.38155 68.3866 7.61388 68.0648 7.86833C68.0532 7.35929 67.84 6.87567 67.4721 6.52373C67.1041 6.17179 66.6115 5.98032 66.1025 5.99139H65.2804C65.0285 5.98591 64.7779 6.03012 64.5431 6.1215C64.3083 6.21287 64.0938 6.34961 63.9118 6.52391C63.7298 6.69821 63.584 6.90666 63.4826 7.13734C63.3812 7.36802 63.3263 7.61641 63.3209 7.86833V9.24436H64.6675V25.7862C64.6702 25.9563 64.7297 26.1205 64.8365 26.2529C64.9433 26.3853 65.0912 26.4782 65.2568 26.5169L67.5875 27.0738C67.6423 27.088 67.6996 27.0897 67.7551 27.0787C67.8106 27.0677 67.863 27.0444 67.9083 27.0104C67.9535 26.9765 67.9906 26.9327 68.0167 26.8825C68.0428 26.8323 68.0572 26.7768 68.0589 26.7202V21.2191C69.7269 22.5652 71.8087 23.2938 73.952 23.2816C78.9906 23.2816 83.0863 19.3687 83.0863 14.5393V13.9794L83.0922 13.9853ZM73.6014 20.1406C70.2895 20.1406 67.6022 17.5654 67.6022 14.392C67.6022 11.2185 70.2895 8.64032 73.6014 8.64032C76.9133 8.64032 79.6005 11.2274 79.6005 14.392C79.6005 17.5565 76.9044 20.1406 73.6014 20.1406Z" fill="#0E0E2C"/>
<path d="M210.238 19.5038H208.196V3.20357H207.106C206.508 3.19172 205.929 3.41774 205.497 3.83204C205.065 4.24634 204.815 4.81508 204.802 5.41347V7.52908C203.133 6.18402 201.052 5.45555 198.909 5.46651C193.87 5.46651 189.775 9.3795 189.775 14.2089V14.7628C189.775 19.4272 193.723 23.2105 198.591 23.2105H199.203C201.232 23.2223 203.205 22.5484 204.802 21.2982C204.822 21.6968 204.997 22.0718 205.289 22.344C205.581 22.6162 205.967 22.7642 206.366 22.7568H210.235C210.46 22.7759 210.686 22.7483 210.899 22.6755C211.112 22.6028 211.308 22.4865 211.474 22.3342C211.64 22.1818 211.772 21.9967 211.863 21.7904C211.953 21.5842 212 21.3614 212 21.1362C212 20.9109 211.953 20.6881 211.863 20.4819C211.772 20.2757 211.64 20.0905 211.474 19.9382C211.308 19.7858 211.112 19.6696 210.899 19.5968C210.686 19.5241 210.46 19.4964 210.235 19.5156L210.238 19.5038ZM199.271 20.0931C195.959 20.0931 193.275 17.5178 193.275 14.3415C193.275 11.1651 195.959 8.59278 199.271 8.59278C202.583 8.59278 205.27 11.168 205.27 14.3415C205.27 17.5149 202.586 20.0931 199.271 20.0931Z" fill="#0E0E2C"/>
<path d="M181.627 5.84035H181.551C179.558 5.92743 177.646 6.65024 176.094 7.90292V7.50219C176.085 7.09866 175.915 6.7153 175.624 6.43631C175.332 6.15732 174.942 6.0055 174.538 6.01419H173.436C173.217 6.0095 172.998 6.04808 172.794 6.12774C172.589 6.20739 172.403 6.32655 172.244 6.47841C172.086 6.63028 171.959 6.81187 171.871 7.01281C171.782 7.21375 171.735 7.43011 171.73 7.64952V9.26717H172.696V21.6927C172.707 22.1309 172.891 22.5469 173.208 22.8496C173.525 23.1523 173.95 23.3169 174.388 23.3074H176.094V12.5938C176.576 11.5356 177.355 10.6401 178.336 10.0161C179.317 9.39207 180.459 9.06639 181.621 9.07859C181.834 9.07859 182.045 9.03667 182.242 8.95523C182.438 8.87379 182.617 8.75441 182.767 8.60393C182.918 8.45344 183.037 8.27479 183.119 8.07817C183.2 7.88155 183.242 7.67081 183.242 7.458C183.242 7.24518 183.2 7.03444 183.119 6.83782C183.037 6.6412 182.918 6.46255 182.767 6.31206C182.617 6.16158 182.438 6.04221 182.242 5.96076C182.045 5.87932 181.834 5.8374 181.621 5.8374L181.627 5.84035Z" fill="#0E0E2C"/>
<path d="M190.679 20.0662C189.837 19.6259 189.131 18.9651 188.636 18.1544C188.141 17.3437 187.875 16.4136 187.868 15.4637V5.44546C187.855 4.84889 187.606 4.28195 187.175 3.86922C186.744 3.4565 186.166 3.23176 185.57 3.2444H184.471V15.5079C184.501 17.0086 184.93 18.4744 185.713 19.7548C186.497 21.0353 187.607 22.0844 188.929 22.7947L189.038 22.8536C189.295 22.9967 189.584 23.0727 189.878 23.0746C190.314 23.0833 190.735 22.9188 191.05 22.6172C191.365 22.3157 191.547 21.9016 191.557 21.4658C191.553 21.1725 191.469 20.8859 191.313 20.6374C191.157 20.389 190.936 20.1883 190.673 20.0573L190.679 20.0662Z" fill="#0E0E2C"/>
<path d="M43.1723 18.1688C42.8186 18.1747 42.4747 18.2866 42.1852 18.49C40.9212 19.3416 39.4214 20.2196 36.2745 20.2196C32.5324 20.2196 30.8057 17.1258 30.4698 16.0945H41.5812C42.3956 16.1111 43.1833 15.804 43.7716 15.2406C44.3599 14.6771 44.7007 13.9034 44.7193 13.089V12.6176C44.7193 8.70753 41.4103 5.5459 37.3293 5.5459H35.8561C30.9678 5.5459 27.0165 9.34398 27.0165 14.029V14.8481C27.0165 19.5331 30.9796 23.3312 35.8561 23.3312H36.8343C39.4959 23.3434 42.0912 22.5017 44.239 20.9297C44.4134 20.7865 44.5541 20.6067 44.6514 20.403C44.7486 20.1994 44.8 19.9768 44.8018 19.7511C44.7925 19.3249 44.6144 18.9199 44.3067 18.6248C43.999 18.3298 43.5867 18.169 43.1605 18.1777L43.1723 18.1688ZM36.2745 8.58967H37.0052C39.2387 8.58967 41.0597 10.1808 41.2394 12.3406C41.2424 12.3847 41.2424 12.4291 41.2394 12.4732C41.2326 12.6248 41.1675 12.768 41.0577 12.8729C40.9479 12.9777 40.8019 13.0361 40.6501 13.036H30.3844C30.7332 11.7455 31.5018 10.608 32.5689 9.80283C33.636 8.9977 34.9408 8.57086 36.2774 8.58967H36.2745Z" fill="#0E0E2C"/>
<path d="M99.0034 18.1688C98.6496 18.1747 98.3058 18.2866 98.0163 18.49C96.7522 19.3416 95.2495 20.2196 92.1055 20.2196C88.3605 20.2196 86.6368 17.1258 86.3009 16.0945H97.4122C98.2264 16.1111 99.0138 15.8039 99.6016 15.2404C100.189 14.6769 100.53 13.9031 100.547 13.089V12.6176C100.547 8.70753 97.2414 5.5459 93.1604 5.5459H91.6871C86.7988 5.5459 82.8475 9.34398 82.8475 14.029V14.8481C82.8475 19.5331 86.8106 23.3312 91.6871 23.3312H92.6654C95.3268 23.3428 97.922 22.5012 100.07 20.9297C100.244 20.7865 100.385 20.6067 100.482 20.403C100.58 20.1994 100.631 19.9768 100.633 19.7511C100.626 19.3255 100.45 18.9199 100.145 18.6233C99.8396 18.3268 99.4291 18.1633 99.0034 18.1688ZM92.0937 8.58967H92.8157C95.0521 8.58967 96.8701 10.1808 97.0528 12.3406C97.0528 12.3819 97.0528 12.429 97.0528 12.4732C97.0459 12.6248 96.9809 12.768 96.8711 12.8729C96.7613 12.9777 96.6153 13.0361 96.4635 13.036H86.2036C86.5524 11.7455 87.321 10.608 88.3881 9.80283C89.4552 8.9977 90.7601 8.57086 92.0967 8.58967H92.0937Z" fill="#0E0E2C"/>
<path d="M171.897 13.9349C171.897 9.30296 167.981 5.54907 163.149 5.54907H161.629C156.796 5.54907 152.877 9.30296 152.877 13.9349C152.877 14.1058 152.895 14.2738 152.904 14.4417C152.913 14.6097 152.877 14.7776 152.877 14.9485C152.877 19.5805 156.796 23.3343 161.629 23.3343H163.149C167.981 23.3343 171.897 19.5805 171.897 14.9485C171.897 14.7776 171.88 14.6126 171.871 14.4417C171.862 14.2708 171.897 14.1058 171.897 13.9349ZM168.459 14.7187C168.459 17.6888 165.948 20.0932 162.86 20.0932H161.873C158.776 20.0932 156.275 17.6888 156.275 14.7187V14.0439C156.275 11.0738 158.782 8.66945 161.873 8.66945H162.86C165.954 8.66945 168.459 11.0738 168.459 14.0439V14.7187Z" fill="#0E0E2C"/>
<path d="M153.677 6.04985C153.064 6.03217 151.219 6.04985 151.219 6.04985C150.711 6.04021 150.212 6.19064 149.794 6.47987C149.376 6.7691 149.059 7.1825 148.889 7.6616C148.049 10.2457 145.73 18.0599 145.73 18.0599L142.716 7.39642C142.716 7.38168 142.716 7.364 142.716 7.34927L142.663 7.16069C142.535 6.83244 142.31 6.55085 142.019 6.35345C141.727 6.15604 141.382 6.0522 141.03 6.05574H139.46C139.107 6.0522 138.763 6.15604 138.471 6.35345C138.179 6.55085 137.955 6.83244 137.827 7.16069L137.774 7.34927C137.768 7.36455 137.763 7.38032 137.759 7.39642L134.719 18.0599C134.719 18.0599 132.403 10.2457 131.56 7.6616C131.39 7.1825 131.073 6.7691 130.655 6.47987C130.236 6.19064 129.738 6.04021 129.229 6.04985C129.229 6.04985 127.385 6.03217 126.772 6.04985C126.33 6.04985 125.905 6.22556 125.593 6.53832C125.28 6.85108 125.104 7.27528 125.104 7.71759C125.104 8.1599 125.28 8.58409 125.593 8.89686C125.905 9.20962 126.33 9.38533 126.772 9.38533H128.54C128.54 9.38533 131.224 19.4772 132.414 22.241C132.644 22.7744 133.298 23.0838 133.941 23.0985H135.659C136.301 23.0631 136.937 22.7184 137.153 22.1674C138.007 19.9899 139.445 14.5624 140.226 11.5186C141.007 14.5624 142.442 19.9899 143.296 22.1674C143.511 22.7184 144.148 23.0513 144.79 23.0985H146.508C147.147 23.0838 147.804 22.7744 148.034 22.241C149.213 19.4743 151.912 9.38533 151.912 9.38533H153.68C154.122 9.38533 154.546 9.20962 154.859 8.89686C155.172 8.58409 155.347 8.1599 155.347 7.71759C155.347 7.27528 155.172 6.85108 154.859 6.53832C154.546 6.22556 154.122 6.04985 153.68 6.04985H153.677Z" fill="#0E0E2C"/>
<path d="M124.638 19.4065H122.652C123.268 18.8314 123.83 18.2001 124.329 17.5207L124.343 17.5001C124.534 17.2322 124.636 16.9122 124.638 16.5837C124.628 16.1317 124.439 15.7022 124.112 15.3895C123.786 15.0768 123.349 14.9065 122.897 14.916C122.629 14.9162 122.366 14.9771 122.125 15.094C121.885 15.2108 121.674 15.3807 121.509 15.5907C121.018 16.229 120.456 16.8084 119.832 17.3174L110.872 6.80713C110.647 6.55206 110.52 6.22497 110.515 5.88486C110.519 5.69062 110.561 5.49898 110.638 5.32097C110.716 5.14295 110.828 4.98208 110.969 4.84762C111.109 4.71315 111.274 4.60775 111.455 4.53747C111.637 4.46719 111.83 4.43342 112.024 4.43812H118.067V6.09996C118.093 6.54429 118.288 6.96194 118.612 7.26738C118.935 7.57282 119.364 7.74296 119.809 7.74296C120.254 7.74296 120.682 7.57282 121.006 7.26738C121.33 6.96194 121.524 6.54429 121.55 6.09996V2.76449C121.54 2.29697 121.356 1.84995 121.034 1.51096C120.712 1.17196 120.275 0.965407 119.809 0.931742V0.914062H111.379C108.836 0.914062 106.773 2.89119 106.773 5.33386V5.81415C106.775 6.85281 107.156 7.85516 107.843 8.63398L109.272 10.3076C106.325 10.9116 104.115 13.4221 104.115 16.4276C104.133 17.7262 104.553 18.9874 105.317 20.0375C106.081 21.0877 107.152 21.875 108.382 22.2912C109.912 22.8332 111.524 23.1083 113.147 23.1044C115.253 23.1078 117.332 22.6365 119.231 21.7254C119.371 22.0313 119.597 22.2901 119.881 22.4705C120.165 22.6509 120.495 22.7452 120.831 22.742H124.638C124.865 22.7555 125.093 22.7224 125.307 22.6447C125.521 22.567 125.717 22.4463 125.883 22.2902C126.049 22.134 126.181 21.9455 126.271 21.7364C126.361 21.5273 126.408 21.302 126.408 21.0742C126.408 20.8465 126.361 20.6211 126.271 20.4121C126.181 20.203 126.049 20.0145 125.883 19.8583C125.717 19.7021 125.521 19.5815 125.307 19.5038C125.093 19.4261 124.865 19.393 124.638 19.4065ZM113.011 19.7012C112.117 19.7038 111.227 19.5969 110.359 19.3829C110.359 19.3829 107.483 18.5432 107.483 16.4364C107.483 14.4917 109.97 13.2983 111.358 12.7856L116.715 19.0618C115.523 19.4936 114.264 19.713 112.996 19.71L113.011 19.7012Z" fill="#0E0E2C"/>
</svg>
